<?xml version="1.0" standalone="no"?>
<!DOCTYPE svg PUBLIC "-//W3C//DTD SVG 20010904//EN"
 "http://www.w3.org/TR/2001/REC-SVG-20010904/DTD/svg10.dtd">
<svg version="1.0" xmlns="http://www.w3.org/2000/svg"
 width="589.000000pt" height="386.000000pt" viewBox="0 0 589.000000 386.000000"
 preserveAspectRatio="xMidYMid meet">

<g transform="translate(0.000000,386.000000) scale(0.100000,-0.100000)"
fill="#000000" stroke="none">
<path d="M1224 3366 c-134 -31 -245 -110 -293 -209 -71 -144 -85 -292 -51
-532 14 -101 20 -178 15 -210 -13 -105 -66 -170 -179 -220 -63 -28 -91 -62
-82 -99 6 -24 23 -36 213 -149 35 -21 44 -34 58 -79 24 -79 44 -243 51 -418 5
-139 3 -173 -21 -320 -51 -318 -44 -437 33 -549 113 -166 387 -266 593 -218
122 29 181 87 148 145 -19 33 -58 34 -139 3 -163 -61 -426 29 -503 173 -19 35
-22 56 -21 151 0 65 10 171 25 260 20 125 24 183 23 345 -3 403 -44 537 -193
625 -28 17 -50 32 -50 35 0 3 22 20 48 39 123 88 155 228 116 511 -43 318 0
476 152 558 88 46 177 58 332 44 69 -7 154 -12 188 -12 55 0 64 3 79 24 21 33
15 65 -16 87 -22 16 -53 19 -245 24 -168 4 -234 2 -281 -9z"/>
<path d="M4068 3371 c-74 -5 -101 -10 -117 -25 -25 -23 -27 -53 -5 -84 l16
-23 256 3 257 3 57 -28 c149 -73 197 -243 165 -573 -10 -93 -17 -196 -17 -230
0 -117 47 -214 135 -276 l44 -31 -67 -41 c-124 -77 -137 -119 -173 -594 -12
-166 -8 -257 22 -481 10 -79 19 -168 19 -198 0 -86 -46 -159 -142 -223 -125
-83 -284 -105 -397 -55 -71 32 -101 30 -120 -9 -29 -61 27 -114 148 -143 225
-52 534 78 620 262 34 72 37 154 11 330 -33 231 -37 450 -11 685 12 107 24
205 26 218 9 40 76 102 162 149 46 26 93 55 103 65 44 41 17 84 -84 132 -155
75 -186 169 -147 455 26 192 26 267 1 366 -43 167 -147 280 -307 331 -54 18
-295 26 -455 15z"/>
<path d="M3539 1753 c-43 -22 -60 -38 -81 -78 -56 -104 -44 -221 32 -308 160
-181 400 -90 400 152 0 77 -23 141 -68 186 -79 80 -184 97 -283 48z m176 -127
c38 -38 55 -119 35 -170 -15 -41 -53 -60 -93 -47 -92 31 -130 158 -67 221 29
29 94 27 125 -4z"/>
<path d="M2756 1754 c-107 -121 -126 -158 -126 -240 0 -77 16 -126 59 -175 80
-95 196 -103 291 -22 147 126 126 318 -45 419 -61 35 -155 45 -179 18z m176
-194 c24 -45 17 -85 -23 -126 -34 -35 -64 -45 -98 -32 -40 14 -65 113 -41 158
6 11 27 31 47 45 36 24 38 24 66 7 17 -9 38 -33 49 -52z"/>
<path d="M1969 1700 c-99 -53 -166 -199 -145 -313 10 -56 61 -123 112 -148
119 -57 229 -5 298 141 27 56 31 76 31 146 0 70 -3 85 -27 121 -34 51 -76 69
-163 71 -52 1 -79 -3 -106 -18z m130 -121 c20 -7 33 -20 37 -35 17 -67 -60
-194 -117 -194 -34 0 -55 27 -64 86 -9 53 14 108 57 134 38 23 44 24 87 9z"/>
</g>
</svg>
