<?xml version="1.0" standalone="no"?>
<!DOCTYPE svg PUBLIC "-//W3C//DTD SVG 20010904//EN"
 "http://www.w3.org/TR/2001/REC-SVG-20010904/DTD/svg10.dtd">
<svg version="1.0" xmlns="http://www.w3.org/2000/svg"
 width="800.000000pt" height="800.000000pt" viewBox="0 0 800.000000 800.000000"
 preserveAspectRatio="xMidYMid meet">

<g transform="translate(0.000000,800.000000) scale(0.100000,-0.100000)"
fill="#000000" stroke="none">
<path d="M3806 7197 c-120 -63 -122 -65 -153 -102 -99 -120 -123 -171 -130
-268 -3 -43 -10 -80 -14 -83 -12 -7 -12 -2491 0 -2498 4 -3 10 -38 13 -78 5
-82 34 -148 99 -231 49 -62 83 -87 188 -138 82 -40 85 -41 192 -41 60 0 115 4
122 10 6 5 24 12 38 15 88 21 226 144 279 249 25 48 34 81 37 136 3 40 10 75
14 78 12 7 12 2501 0 2508 -4 3 -11 40 -14 82 -3 42 -9 80 -14 83 -4 3 -18 26
-31 51 -13 25 -29 55 -36 68 -18 31 -67 82 -79 82 -5 0 -24 13 -42 29 -18 16
-55 37 -81 46 -27 10 -56 24 -65 32 -11 9 -48 13 -130 12 -114 -1 -114 -1
-193 -42z"/>
<path d="M2386 6221 c-3 -5 -22 -12 -43 -16 -47 -8 -102 -37 -127 -64 -11 -12
-23 -21 -29 -21 -43 0 -577 -532 -577 -575 0 -4 -20 -31 -45 -59 -25 -29 -45
-56 -45 -61 0 -4 -10 -21 -22 -38 -26 -36 -44 -65 -54 -87 -4 -8 -17 -28 -29
-45 -21 -29 -174 -332 -180 -357 -9 -36 -18 -58 -25 -58 -4 0 -11 -20 -14 -45
-4 -24 -11 -47 -15 -50 -5 -2 -12 -21 -16 -41 -3 -20 -11 -45 -16 -55 -5 -11
-13 -28 -19 -39 -5 -10 -13 -38 -16 -62 -4 -24 -10 -47 -14 -53 -5 -5 -11 -32
-15 -60 -4 -27 -11 -54 -15 -60 -5 -5 -11 -49 -15 -98 -4 -48 -11 -90 -16 -93
-5 -3 -9 -31 -9 -63 0 -31 -5 -62 -10 -67 -14 -14 -14 -587 0 -613 5 -11 10
-43 10 -70 0 -28 4 -59 9 -69 5 -9 14 -48 19 -87 13 -84 35 -186 43 -200 4 -5
10 -31 13 -57 4 -26 11 -50 17 -53 5 -4 9 -17 9 -30 0 -13 8 -38 17 -57 27
-55 30 -62 37 -98 4 -19 13 -48 21 -65 35 -79 88 -192 96 -205 5 -8 12 -22 15
-30 3 -8 9 -22 14 -30 5 -8 21 -40 36 -70 14 -30 34 -64 44 -75 10 -11 21 -31
25 -45 4 -14 18 -39 31 -56 13 -17 24 -34 24 -39 0 -4 14 -25 32 -47 33 -42
78 -107 78 -112 0 -4 37 -48 98 -115 23 -27 42 -52 42 -57 0 -11 256 -264 267
-264 5 0 22 -14 39 -31 28 -30 158 -133 195 -155 11 -6 27 -18 36 -27 10 -8
29 -22 43 -29 14 -8 59 -36 100 -62 41 -27 119 -71 172 -97 53 -27 99 -53 103
-59 3 -5 12 -10 20 -10 13 0 119 -45 177 -76 14 -8 35 -14 46 -14 12 0 23 -4
26 -9 3 -4 20 -11 38 -15 18 -3 47 -12 63 -20 17 -8 57 -22 90 -31 33 -8 74
-20 90 -25 17 -5 51 -12 78 -16 26 -3 50 -10 53 -15 3 -5 25 -9 49 -9 24 0 46
-4 49 -9 4 -5 50 -12 104 -16 53 -4 105 -12 115 -17 23 -12 575 -12 590 0 7 5
53 12 102 15 50 3 104 10 120 16 17 5 57 14 90 20 33 5 89 17 125 26 36 9 75
19 88 22 12 3 25 9 28 14 3 5 17 9 31 9 13 0 37 6 51 14 15 8 54 22 87 32 33
9 71 23 85 30 66 33 162 74 172 74 6 0 19 6 27 14 9 8 57 35 106 60 194 101
384 227 514 344 27 23 52 42 56 42 10 0 275 267 275 278 0 4 18 26 40 47 22
21 40 43 40 48 0 5 20 32 45 60 25 29 45 56 45 61 0 5 18 31 40 57 22 26 40
50 40 52 0 3 18 34 40 68 42 68 223 424 226 447 2 7 9 23 17 35 8 12 18 41 22
65 4 23 11 42 16 42 5 0 9 10 9 23 0 13 7 32 15 43 8 10 15 31 15 46 0 15 4
29 9 33 6 3 13 27 17 53 3 26 10 52 14 57 5 6 11 33 15 60 4 28 11 55 15 60 4
6 11 45 15 87 4 43 11 80 16 84 5 3 9 32 9 64 0 32 5 62 11 65 6 5 10 56 9
143 -1 76 1 145 5 154 4 9 4 22 0 28 -4 6 -6 74 -6 150 1 87 -2 141 -9 145 -5
3 -10 33 -10 65 0 32 -4 61 -9 64 -4 3 -12 42 -15 86 -4 44 -11 82 -15 85 -5
2 -12 33 -15 67 -4 35 -11 67 -15 73 -5 5 -11 29 -15 53 -3 24 -11 52 -16 62
-6 11 -14 28 -19 38 -5 10 -12 33 -16 52 -4 19 -11 40 -15 45 -4 6 -11 26 -15
45 -7 38 -15 55 -126 285 -40 83 -83 164 -94 180 -12 17 -25 37 -28 45 -9 21
-27 49 -59 91 -16 20 -28 40 -28 45 0 4 -18 29 -40 55 -22 26 -40 51 -40 56 0
5 -27 38 -60 75 -33 36 -60 70 -60 75 0 11 -273 283 -284 283 -4 0 -43 32 -85
70 -43 39 -82 70 -88 70 -5 0 -18 9 -28 20 -10 11 -46 35 -79 53 -61 32 -62
32 -206 32 l-145 0 -63 -35 c-35 -19 -73 -40 -84 -46 -30 -17 -88 -76 -88 -90
0 -6 -7 -17 -15 -24 -20 -16 -75 -119 -75 -140 0 -9 -3 -20 -7 -23 -12 -13
-16 -218 -4 -243 6 -13 16 -36 22 -51 6 -16 15 -35 20 -43 5 -8 15 -28 23 -45
18 -40 190 -205 212 -205 11 0 254 -242 254 -253 0 -5 18 -29 40 -55 41 -48
65 -83 76 -114 3 -10 10 -18 15 -18 5 0 14 -10 19 -22 6 -13 18 -36 28 -53 28
-46 67 -123 102 -200 17 -38 38 -83 46 -98 8 -16 14 -37 14 -48 0 -10 4 -19 9
-19 6 0 13 -20 17 -45 3 -25 10 -47 14 -50 5 -3 11 -29 15 -58 4 -28 11 -57
16 -63 5 -6 12 -50 15 -98 4 -48 11 -89 16 -92 12 -8 10 -491 -2 -499 -6 -4
-10 -23 -10 -43 1 -44 -8 -99 -20 -127 -5 -11 -11 -41 -15 -67 -3 -26 -10 -50
-14 -53 -5 -2 -11 -27 -15 -54 -4 -28 -10 -53 -15 -55 -5 -3 -12 -18 -15 -33
-8 -31 -21 -61 -96 -213 -28 -58 -64 -125 -80 -150 -17 -25 -33 -52 -37 -61
-41 -85 -347 -417 -438 -474 -17 -11 -48 -34 -71 -52 -23 -18 -45 -33 -49 -33
-5 0 -16 -7 -26 -16 -23 -21 -52 -37 -195 -108 -148 -73 -172 -84 -208 -92
-16 -4 -41 -13 -55 -20 -14 -8 -33 -14 -41 -14 -17 0 -79 -21 -97 -33 -6 -4
-40 -10 -75 -13 -34 -4 -69 -12 -77 -18 -20 -15 -689 -16 -699 0 -4 6 -30 14
-58 17 -49 5 -208 53 -229 67 -5 4 -26 11 -45 15 -19 4 -44 14 -55 21 -11 8
-25 14 -32 14 -14 0 -149 65 -203 98 -19 12 -48 28 -65 36 -16 8 -55 33 -85
55 -30 23 -65 45 -76 50 -29 13 -321 298 -359 350 -16 23 -47 64 -67 90 -21
27 -38 52 -38 56 0 3 -10 21 -23 38 -12 18 -28 41 -34 52 -23 37 -130 260
-148 305 -9 25 -21 53 -26 62 -5 9 -12 36 -15 60 -4 24 -11 48 -15 54 -5 6
-12 33 -15 60 -4 27 -10 54 -15 59 -4 6 -11 42 -14 80 -4 39 -11 79 -16 90
-10 21 -5 457 6 550 11 95 17 130 25 140 4 6 11 32 15 59 3 27 11 56 15 65 5
9 17 43 26 76 9 33 23 71 29 85 7 14 28 59 47 100 30 66 77 158 130 252 9 17
25 40 36 52 10 11 22 29 25 39 4 9 11 17 17 17 5 0 10 6 10 13 0 7 14 26 30
42 17 16 30 34 30 40 0 14 228 235 304 295 87 69 146 128 162 163 8 18 18 39
23 47 10 17 26 56 35 83 10 31 14 247 5 253 -5 3 -9 13 -9 23 0 48 -124 225
-178 256 -75 41 -129 65 -149 65 -12 0 -25 5 -28 10 -8 12 -222 13 -229 1z"/>
</g>
</svg>
