<svg xmlns="http://www.w3.org/2000/svg" width="266.667" height="241.333" version="1.0" viewBox="0 0 200 181"><path d="M132.8 32.7c-1.9.3-3 1.2-3.4 2.9-1.1 4.3 1 5.4 10.2 5.4 6.6 0 8.4.3 8.4 1.4 0 .8-.3 1.6-.7 1.8-.5.1-5.1 4.8-10.5 10.4l-9.6 10-.2 37.7c0 25.2.3 38.3 1 39.7 1.4 2.7 6.5 2.7 8 .1.6-1.3 1-15.1 1-38.2V67.6l8.3-8.5c4.5-4.7 8.5-8.8 9-8.9.4-.2.7 3 .7 7 0 7.5.9 9.8 4 9.8.9 0 2.4-.8 3.3-1.8 1.4-1.6 1.7-4.3 1.7-16.5 0-10.2-.4-14.8-1.2-15.3-1.3-.8-25.6-1.4-30-.7zM92.2 39.6 90 41.1v35c0 19.2-.4 34.9-.8 34.9s-3.3-2.7-6.4-6c-3-3.3-6.1-6-6.9-6-.7 0-4.2 2.9-7.7 6.5s-6.5 6.5-6.8 6.5c-.2 0-.4-2-.4-4.5 0-4.4-2.4-8.5-5-8.5-.5 0-1.9.9-3 2-1.9 1.9-2 3.3-2 20.6 0 10.9.4 19.3 1 20.5.6 1.1 2.1 1.9 3.5 1.9 3.7 0 5.5-3.5 5.5-11 0-6.6 0-6.6 5-11.5l5-4.9v20.5c0 21.5.3 22.9 4.5 22.9s4.5-1.4 4.5-22.7c0-11.6.4-20.3.9-20.3s2.8 2.1 5 4.6l4.1 4.7v20.4c0 12.2.4 21.2 1 22.4 1.2 2.1 5 2.5 6.8.7.9-.9 1.2-16.8 1.2-65.5 0-62.5-.1-64.3-1.9-65.3-2.5-1.3-2.2-1.3-4.9.6zM110.1 73.4c-.8.9-1 13.1-.9 43.1.3 41.6.3 41.8 2.5 43.2 1.9 1.3 2.4 1.2 4.2-.6 2.1-2.1 2.1-3 2.1-42.7 0-26-.4-41.2-1-42.5-1.2-2.2-5.2-2.5-6.9-.5z"/></svg>