<?xml version="1.0" standalone="no"?>
<!DOCTYPE svg PUBLIC "-//W3C//DTD SVG 20010904//EN"
 "http://www.w3.org/TR/2001/REC-SVG-20010904/DTD/svg10.dtd">
<svg version="1.0" xmlns="http://www.w3.org/2000/svg"
 width="666.000000pt" height="375.000000pt" viewBox="0 0 666.000000 375.000000"
 preserveAspectRatio="xMidYMid meet">

<g transform="translate(0.000000,375.000000) scale(0.100000,-0.100000)"
fill="#000000" stroke="none">
<path d="M2235 3494 c-21 -52 -20 -54 33 -54 58 0 67 6 87 53 l15 37 -60 0
c-59 0 -60 0 -75 -36z"/>
<path d="M2456 3373 c-7 -7 -46 -91 -46 -99 0 -2 36 -4 80 -4 l81 0 19 46 c11
25 20 50 20 55 0 11 -143 12 -154 2z"/>
<path d="M2140 3208 c-11 -18 -20 -37 -20 -41 0 -4 21 -7 47 -5 43 3 47 5 59
41 l13 37 -40 0 c-34 0 -42 -5 -59 -32z"/>
<path d="M2614 3145 c-13 -31 -24 -60 -24 -65 0 -6 45 -10 108 -10 l109 0 25
65 26 65 -109 0 -110 0 -25 -55z"/>
<path d="M2847 3023 c-14 -38 -29 -76 -33 -85 -6 -17 4 -18 129 -18 l134 0 32
78 c17 43 31 82 31 85 0 4 -60 7 -133 7 l-134 0 -26 -67z"/>
<path d="M2337 3035 c-28 -58 -24 -65 37 -65 58 0 67 6 91 63 l15 37 -63 0
c-63 0 -63 0 -80 -35z"/>
<path d="M3135 2938 c-13 -29 -33 -76 -44 -105 l-20 -52 62 -6 c34 -3 102 -5
151 -3 l88 3 39 95 c21 52 38 101 38 108 1 9 -35 12 -145 12 l-145 0 -24 -52z"/>
<path d="M3842 2968 c-5 -7 -34 -75 -65 -150 -45 -112 -52 -138 -40 -142 13
-5 13 -9 -2 -32 -16 -24 -16 -25 2 -16 16 9 18 5 18 -36 1 -40 5 -49 28 -62
22 -12 30 -13 47 -2 11 6 31 12 45 12 16 0 25 6 25 15 0 18 1 18 34 5 17 -6
26 -6 26 0 0 15 54 12 76 -5 10 -8 27 -15 37 -15 10 0 35 -9 56 -20 21 -10 41
-16 45 -13 12 12 6 -6 -55 -158 -33 -85 -77 -194 -96 -244 -20 -49 -39 -93
-43 -98 -8 -9 -211 32 -225 46 -7 7 -6 8 3 3 21 -12 13 4 -18 37 -17 18 -38
44 -47 59 -16 26 -93 77 -93 61 0 -4 -9 6 -20 22 -17 26 -25 27 -21 3 0 -5 -3
-8 -8 -8 -5 0 -14 -15 -21 -32 -12 -32 -94 -231 -131 -315 -10 -24 -15 -43
-11 -44 4 0 59 0 122 1 119 1 287 -14 353 -31 31 -8 37 -14 32 -29 -3 -11 -64
-163 -135 -337 -118 -293 -130 -318 -152 -317 -28 1 -332 45 -336 48 -6 7 23
73 41 93 11 13 17 29 13 39 -5 13 -15 15 -54 9 -106 -15 -114 -27 -259 -391
-3 -8 25 -14 84 -18 566 -45 1006 -242 1262 -566 10 -14 21 -23 24 -20 3 3 75
178 160 390 286 711 465 1153 567 1405 56 138 104 258 107 268 9 28 -172 199
-301 285 -267 179 -568 279 -907 302 -79 5 -147 10 -150 10 -4 0 -11 -6 -17
-12z m787 -464 c6 4 11 2 11 -3 0 -6 4 -10 9 -8 13 3 112 -74 106 -83 -3 -5 0
-12 6 -16 8 -4 9 -3 5 4 -9 14 0 16 17 3 45 -36 97 -85 97 -91 0 -5 -7 -15
-15 -23 -8 -8 -12 -17 -9 -20 3 -3 -1 -20 -9 -39 -8 -18 -47 -114 -87 -213
-40 -99 -84 -205 -99 -235 -27 -58 -28 -61 -30 -86 -1 -13 -5 -12 -28 6 -95
73 -283 179 -376 211 -31 11 -37 17 -33 34 15 60 221 543 230 538 5 -4 7 1 3
13 -6 15 -3 14 13 -5 18 -21 20 -21 21 -5 0 16 2 16 11 -3 12 -25 34 -30 41
-10 3 9 7 9 19 -1 11 -9 23 -10 41 -3 27 11 45 31 27 31 -6 0 -8 5 -4 11 5 8
9 8 14 -1 4 -7 13 -9 19 -6z m-390 -829 c120 -58 214 -120 269 -178 l34 -35
-117 -288 c-65 -159 -124 -304 -131 -322 -15 -37 -14 -37 -86 19 -66 52 -144
95 -262 146 -75 32 -101 47 -100 60 1 30 258 653 269 653 5 0 61 -25 124 -55z"/>
<path d="M3561 2959 c-46 -4 -84 -9 -85 -11 -6 -8 -106 -264 -106 -271 0 -4
73 -6 162 -5 l162 3 58 145 c32 80 58 146 58 148 0 5 -168 -1 -249 -9z"/>
<path d="M2044 2940 c-12 -5 -26 -22 -32 -39 l-11 -31 45 0 c42 0 46 2 60 35
7 19 14 37 14 40 0 8 -52 5 -76 -5z"/>
<path d="M2530 2865 c-6 -14 -14 -36 -20 -50 l-10 -26 86 3 86 3 19 48 19 47
-85 0 c-82 0 -86 -1 -95 -25z"/>
<path d="M2221 2748 c-26 -71 -28 -68 39 -68 60 0 61 0 76 35 21 52 19 55 -46
55 -54 0 -61 -3 -69 -22z"/>
<path d="M1882 2623 c-5 -16 -13 -36 -17 -45 -6 -16 0 -18 53 -18 56 0 61 2
70 28 5 15 13 35 17 45 6 15 0 17 -53 17 -56 0 -61 -2 -70 -27z"/>
<path d="M3351 2632 c-5 -10 -23 -52 -40 -93 -16 -41 -37 -91 -45 -111 l-16
-38 164 0 163 0 46 113 c25 61 49 120 53 130 6 16 -6 17 -155 17 -145 0 -161
-2 -170 -18z"/>
<path d="M2423 2588 c-5 -7 -17 -32 -26 -56 l-17 -43 86 3 86 3 18 46 17 47
-45 6 c-69 9 -109 7 -119 -6z"/>
<path d="M2637 2425 c-15 -36 -27 -70 -27 -75 0 -6 43 -10 105 -10 l105 0 25
57 c38 86 37 88 -81 91 l-100 3 -27 -66z"/>
<path d="M2080 2455 c-6 -14 -14 -36 -20 -50 l-10 -25 81 0 80 0 19 46 c11 25
20 48 20 50 0 2 -36 4 -80 4 -77 0 -81 -1 -90 -25z"/>
<path d="M2913 2303 c-21 -54 -27 -80 -19 -85 6 -4 59 -8 118 -8 l106 0 18 48
c9 26 23 62 31 81 7 18 13 35 13 37 0 2 -53 4 -118 4 l-118 0 -31 -77z"/>
<path d="M3231 2338 c-5 -13 -28 -68 -50 -122 -23 -55 -41 -103 -41 -108 0 -5
73 -7 161 -6 l162 3 48 120 c27 66 49 123 49 128 0 4 -72 7 -160 7 -157 0
-161 0 -169 -22z"/>
<path d="M1775 2314 c-8 -20 -15 -38 -15 -40 0 -2 20 -4 46 -4 42 0 46 2 60
35 7 19 14 37 14 40 0 3 -20 5 -45 5 -42 0 -46 -2 -60 -36z"/>
<path d="M2261 2268 c-40 -95 -47 -88 77 -88 l110 0 10 28 c6 15 17 44 26 65
l16 37 -110 0 -111 0 -18 -42z"/>
<path d="M2488 2132 c-15 -37 -30 -75 -34 -84 -6 -17 4 -18 129 -18 l135 0 31
78 c17 42 31 80 31 85 0 4 -60 7 -132 7 l-133 0 -27 -68z"/>
<path d="M1977 2145 c-9 -20 -17 -40 -17 -45 0 -6 28 -10 63 -10 l62 0 16 45
17 45 -62 0 c-61 0 -63 -1 -79 -35z"/>
<path d="M2757 2002 c-21 -53 -37 -100 -37 -104 0 -5 66 -8 148 -8 l147 0 42
105 41 105 -151 0 -152 0 -38 -98z"/>
<path d="M3120 2067 c0 -2 -23 -59 -50 -127 -28 -67 -49 -124 -48 -125 2 -2
76 -5 166 -7 112 -3 162 -1 162 6 0 6 22 66 49 134 l49 122 -164 0 c-90 0
-164 -1 -164 -3z"/>
<path d="M1702 2053 c-26 -4 -35 -11 -47 -40 -9 -20 -14 -37 -13 -39 2 -1 24
0 50 3 41 5 48 9 57 36 14 39 14 47 -1 45 -7 0 -28 -3 -46 -5z"/>
<path d="M2168 1967 c-28 -66 -27 -67 62 -67 l81 0 19 43 c31 66 30 67 -62 67
l-83 0 -17 -43z"/>
<path d="M2397 1833 c-15 -37 -26 -68 -24 -69 2 -2 185 -7 203 -5 11 1 43 66
59 119 6 22 6 22 -103 22 l-109 0 -26 -67z"/>
<path d="M1860 1854 c-6 -14 -15 -34 -21 -45 -10 -19 -7 -20 57 -17 l67 3 18
43 18 42 -65 0 c-60 0 -65 -2 -74 -26z"/>
<path d="M3145 1783 l-141 -4 -47 -117 c-25 -64 -49 -125 -53 -134 -6 -17 6
-18 159 -18 l164 0 53 128 c29 70 54 133 57 140 4 8 -4 11 -23 10 -16 -1 -92
-4 -169 -5z"/>
<path d="M2672 1703 c-21 -55 -26 -80 -18 -85 6 -4 57 -8 114 -8 l103 0 28 63
c53 117 60 107 -77 107 l-120 0 -30 -77z"/>
<path d="M1579 1763 c-42 -4 -46 -7 -60 -41 -7 -20 -15 -40 -17 -44 -4 -10 44
-10 88 -2 24 5 36 15 46 40 17 41 18 55 2 52 -7 -1 -34 -3 -59 -5z"/>
<path d="M2050 1678 c-31 -67 -30 -68 64 -68 l84 0 16 40 c27 68 26 70 -64 70
l-81 0 -19 -42z"/>
<path d="M2286 1559 c-47 -107 -53 -99 72 -99 l110 0 26 66 c15 37 25 69 22
71 -2 3 -50 7 -105 10 l-101 6 -24 -54z"/>
<path d="M1727 1578 c-3 -7 -12 -30 -21 -50 l-16 -38 80 0 c77 0 80 1 93 28
37 72 37 72 -51 72 -55 0 -82 -4 -85 -12z"/>
<path d="M2553 1412 c-17 -42 -29 -80 -26 -84 2 -5 55 -8 116 -8 l113 0 32 75
c18 41 32 79 32 85 0 6 -43 10 -117 10 l-118 0 -32 -78z"/>
<path d="M2989 1483 l-105 -4 -50 -121 c-27 -66 -50 -125 -52 -129 -2 -5 70
-9 160 -9 l164 0 18 37 c10 21 28 65 41 98 13 33 30 77 39 98 l16 37 -62 -2
c-35 -1 -111 -4 -169 -5z"/>
<path d="M1917 1418 c-3 -7 -14 -37 -26 -65 l-21 -53 111 0 110 0 18 43 c40
94 47 87 -77 87 -79 0 -111 -4 -115 -12z"/>
<path d="M2137 1263 c-14 -37 -29 -76 -33 -85 -6 -17 4 -18 128 -18 l134 0 32
77 c21 53 28 79 20 84 -6 4 -66 8 -133 8 l-122 2 -26 -68z"/>
<path d="M2437 1208 c-14 -32 -77 -192 -77 -195 0 -2 68 -2 151 -1 l151 3 39
99 c21 54 39 100 39 102 0 2 -67 4 -149 4 -110 0 -150 -3 -154 -12z"/>
<path d="M2761 1173 c-12 -23 -101 -245 -101 -253 0 -3 73 -5 161 -5 l161 1
49 118 c27 66 51 127 54 137 6 18 -2 19 -154 19 -142 0 -161 -2 -170 -17z"/>
<path d="M4319 282 c9 -7 10 -11 2 -15 -7 -4 -8 -5 0 -3 15 2 13 20 -3 24 -10
3 -10 2 1 -6z"/>
</g>
</svg>
